<svg version="1.1" xmlns="http://www.w3.org/2000/svg" xmlns:xlink="http://www.w3.org/1999/xlink" width="50px" height="50px" viewBox="0,0,256,256"><g fill="#409c15" fill-rule="nonzero" stroke="none" stroke-width="1" stroke-linecap="butt" stroke-linejoin="miter" stroke-miterlimit="10" stroke-dasharray="" stroke-dashoffset="0" font-family="none" font-weight="none" font-size="none" text-anchor="none" style="mix-blend-mode: normal"><g transform="scale(5.12,5.12)"><path d="M43.90625,0.96875c-0.04297,0.00781 -0.08594,0.01953 -0.125,0.03125c-0.46484,0.10547 -0.79297,0.52344 -0.78125,1c0,1.89844 -0.87891,2.94141 -2.5,3.96875c-1.62109,1.02734 -3.96484,1.85938 -6.375,2.875c-2.41016,1.01563 -4.90625,2.23828 -6.84375,4.28125c-1.76172,1.85938 -2.98437,4.41406 -3.1875,7.84375c-1.80469,-0.13672 -2.86328,-0.69531 -4.125,-1.34375c-1.46094,-0.75 -3.19531,-1.625 -5.96875,-1.625c-1.71094,0 -3.34766,1 -4.90625,2.46875c-1.55859,1.46875 -3.06641,3.46484 -4.40625,5.78125c-2.67969,4.63281 -4.6875,10.48828 -4.6875,15.75c0,2.16797 0.53906,4.10156 1.5625,5.5625c1.02344,1.46094 2.60547,2.4375 4.4375,2.4375c4.83203,0 8.33984,-2.44141 11.25,-4.71875c2.91016,-2.27734 5.25,-4.28125 7.75,-4.28125c2.5,0 4.83984,2.00391 7.75,4.28125c2.91016,2.27734 6.41797,4.71875 11.25,4.71875c1.83203,0 3.41406,-0.97656 4.4375,-2.4375c1.02344,-1.46094 1.5625,-3.39453 1.5625,-5.5625c0,-5.26172 -2.00781,-11.11719 -4.6875,-15.75c-1.33984,-2.31641 -2.84766,-4.3125 -4.40625,-5.78125c-1.55859,-1.46875 -3.19531,-2.46875 -4.90625,-2.46875c-2.77344,0 -4.50781,0.875 -5.96875,1.625c-1.21094,0.62109 -2.23437,1.14844 -3.90625,1.3125c0.19531,-2.94141 1.17578,-4.91016 2.625,-6.4375c1.61719,-1.70703 3.82813,-2.85937 6.15625,-3.84375c2.32813,-0.98437 4.72266,-1.77734 6.65625,-3c1.93359,-1.22266 3.4375,-3.05469 3.4375,-5.65625c0.01172,-0.28906 -0.10547,-0.56641 -0.3125,-0.76172c-0.21094,-0.19922 -0.49609,-0.29687 -0.78125,-0.26953zM14,20c2.38672,0 3.57031,0.625 5.03125,1.375c1.46094,0.75 3.19531,1.625 5.96875,1.625c0.09766,0 0.1875,0.00391 0.28125,0c0.01172,0 0.01953,0 0.03125,0c2.58984,-0.0625 4.25391,-0.90234 5.65625,-1.625c1.46094,-0.75 2.64453,-1.375 5.03125,-1.375c0.86719,0 2.16797,0.625 3.53125,1.90625c1.36328,1.28125 2.76563,3.16016 4.03125,5.34375c2.53125,4.36719 4.4375,10.01172 4.4375,14.75c0,1.83203 -0.46094,3.39844 -1.1875,4.4375c-0.72656,1.03906 -1.64453,1.5625 -2.8125,1.5625c-4.16797,0 -7.16016,-2.05859 -10,-4.28125c-2.83984,-2.22266 -5.5,-4.71875 -9,-4.71875c-3.5,0 -6.16016,2.49609 -9,4.71875c-2.83984,2.22266 -5.83203,4.28125 -10,4.28125c-1.16797,0 -2.08594,-0.52344 -2.8125,-1.5625c-0.72656,-1.03906 -1.1875,-2.60547 -1.1875,-4.4375c0,-4.73828 1.90625,-10.38281 4.4375,-14.75c1.26563,-2.18359 2.66797,-4.0625 4.03125,-5.34375c1.36328,-1.28125 2.66406,-1.90625 3.53125,-1.90625zM37,27c-1.10547,0 -2,0.89453 -2,2c0,1.10547 0.89453,2 2,2c1.10547,0 2,-0.89453 2,-2c0,-1.10547 -0.89453,-2 -2,-2zM12,28v3h-3v3h3v3h3v-3h3v-3h-3v-3zM33,31c-1.10547,0 -2,0.89453 -2,2c0,1.10547 0.89453,2 2,2c1.10547,0 2,-0.89453 2,-2c0,-1.10547 -0.89453,-2 -2,-2zM41,31c-1.10547,0 -2,0.89453 -2,2c0,1.10547 0.89453,2 2,2c1.10547,0 2,-0.89453 2,-2c0,-1.10547 -0.89453,-2 -2,-2zM37,35c-1.10547,0 -2,0.89453 -2,2c0,1.10547 0.89453,2 2,2c1.10547,0 2,-0.89453 2,-2c0,-1.10547 -0.89453,-2 -2,-2z"></path></g></g></svg>